<svg width="124" height="29" viewBox="0 0 124 29" fill="none" xmlns="http://www.w3.org/2000/svg">
<path fill-rule="evenodd" clip-rule="evenodd" d="M52.2176 21.6465L46.1824 12.5935V21.6465H43.5V8.51971H46.6015L52.3015 17.0865V8.51971H54.9838V21.6465H52.2176ZM56.5818 17.1871C56.5818 14.5215 58.7779 12.4929 61.4938 12.4929C64.1929 12.4929 66.3556 14.4712 66.3556 17.1368C66.3556 19.8359 64.1594 21.8476 61.4603 21.8476C58.7444 21.8476 56.5818 19.8862 56.5818 17.1871ZM59.2641 17.1535C59.2641 18.5115 60.2532 19.4503 61.4771 19.4503C62.7009 19.4503 63.6732 18.5115 63.6732 17.1535C63.6732 15.8124 62.6841 14.8735 61.4603 14.8735C60.2365 14.8735 59.2641 15.8124 59.2641 17.1535ZM72.7676 12.6941V15.2591C72.4156 15.1921 72.0468 15.1921 71.9294 15.1921C70.6721 15.1921 69.8003 16.0638 69.8003 17.7235V21.6465H67.2353V12.6941H69.7165V14.0018H69.75C70.2362 12.9791 71.1415 12.5935 72.0635 12.5935C72.2647 12.5935 72.5832 12.6438 72.7676 12.6941ZM80.3215 21.6465V20.5065H80.2879C79.4497 21.7303 78.1085 21.8141 77.505 21.8141C74.9065 21.8141 73.2468 19.5676 73.2468 17.1535C73.2468 14.8903 74.9735 12.5265 77.5385 12.5265C78.0582 12.5265 79.2988 12.6271 80.2209 13.7168H80.2544V8H82.8529V21.6465H80.3215ZM80.3215 17.1535C80.3215 15.8124 79.3324 14.8903 78.1085 14.8903C76.8847 14.8903 75.8956 15.8124 75.8956 17.1535C75.8956 18.5115 76.8847 19.4503 78.1085 19.4503C79.3324 19.4503 80.3215 18.5115 80.3215 17.1535Z" fill="#1C1C1C"/>
<path fill-rule="evenodd" clip-rule="evenodd" d="M3.27391 28.2353C1.21453 25.394 0 21.898 0 18.1178C0 8.59891 7.70106 0.882324 17.2008 0.882324C26.7005 0.882324 34.4016 8.59891 34.4016 18.1178C34.4016 21.898 33.1871 25.3939 31.1277 28.2352L22.8662 14.7924L22.0684 16.1421L22.8778 19.8959L17.2008 10.163L13.689 16.1043L14.5066 19.8959L11.5308 14.8001L3.27391 28.2353Z" fill="#43A5A1"/>
<path d="M95.5057 12.4294C95.5057 9.5 93.3351 8 90.5645 8H85.4292V21.8176H88.288V16.9471H90.4586C93.3527 16.9471 95.5057 15.4824 95.5057 12.4294ZM92.6292 12.5C92.6292 13.7882 91.4645 14.2824 90.3351 14.2824H88.288V10.7H90.3174C91.4998 10.7 92.6292 11.1588 92.6292 12.5Z" fill="#43A5A1"/>
<path d="M99.648 21.9941C100.672 21.9941 101.748 21.6412 102.454 20.6353L102.489 20.6529V21.8176H105.03V15.9765C105.03 13.4353 103.319 12.1824 100.972 12.1824C98.9951 12.1824 97.0539 13.1353 96.7363 15.1471L99.1539 15.6941C99.3657 14.9 100.001 14.4059 100.848 14.4059C101.836 14.4059 102.33 14.9706 102.33 15.5706C102.33 15.9588 102.101 16.2235 101.589 16.2235H100.672C98.8363 16.2235 96.5245 16.8588 96.5245 19.1176V19.1882C96.5245 20.9353 98.0069 21.9941 99.648 21.9941ZM100.442 19.9824C99.8598 19.9824 99.2951 19.7 99.2951 19.0294C99.2951 18.2882 100.107 17.9529 100.672 17.9529H102.313V18.1647C102.313 19.1176 101.66 19.9824 100.442 19.9824Z" fill="#43A5A1"/>
<path d="M110.851 22.0294C113.427 22.0294 114.68 20.5118 114.68 18.9059C114.68 16.7353 112.968 16.1 111.151 15.8882C110.145 15.7824 109.686 15.6235 109.686 15.0588C109.686 14.6353 110.092 14.2824 110.763 14.2824C111.557 14.2824 111.998 14.7588 112.139 15.3941L114.521 14.7941C114.327 13.7353 113.251 12.1647 110.798 12.1647C108.804 12.1647 107.074 13.4706 107.074 15.1824C107.074 17.3176 108.698 17.9176 110.48 18.1647C111.468 18.3059 111.98 18.4824 111.98 19.0824C111.98 19.4353 111.663 19.8941 110.851 19.8941C109.933 19.8941 109.404 19.2941 109.28 18.6059L106.88 19.2412C107.039 20.2471 108.08 22.0294 110.851 22.0294Z" fill="#43A5A1"/>
<path d="M120.088 22.0294C122.664 22.0294 123.917 20.5118 123.917 18.9059C123.917 16.7353 122.206 16.1 120.388 15.8882C119.382 15.7824 118.923 15.6235 118.923 15.0588C118.923 14.6353 119.329 14.2824 120 14.2824C120.794 14.2824 121.235 14.7588 121.376 15.3941L123.758 14.7941C123.564 13.7353 122.488 12.1647 120.035 12.1647C118.041 12.1647 116.311 13.4706 116.311 15.1824C116.311 17.3176 117.935 17.9176 119.717 18.1647C120.706 18.3059 121.217 18.4824 121.217 19.0824C121.217 19.4353 120.9 19.8941 120.088 19.8941C119.17 19.8941 118.641 19.2941 118.517 18.6059L116.117 19.2412C116.276 20.2471 117.317 22.0294 120.088 22.0294Z" fill="#43A5A1"/>
</svg>
